# xmcd
#
# Track frame offsets:
#  150
#  10659
#  19686
#  30731
#  40802
#  54457
#  66872
#  79087
#  88515
#  99271
#  112679
#  123277
#  133754
#  144273
#  153375
#  164169
#  176258
#  194731
#  205422
#  216905
#  225781
#  237968
#  250644
#  261202
#
# Disc length: 3641 seconds
#
# Revision: 0
# Processed by: cddbd v1.5.1PL2 Copyright (c) Steve Scherf et al.
# Submitted via: Collectorz.com_Music_Collector 6.11
#
DISCID=380e3718
DTITLE=Syl Johnson - Different Strokes 67 - 69
DYEAR=2005
DGENRE=Blues - Funk - Soul
TTITLE0=Different Strokes
TTITLE1=Try Me
TTITLE2=Come On, Sock It To Me
TTITLE3=Sorry Bput Dat
TTITLE4=I Can Take Care Of Business
TTITLE5=Dresses Too Short
TTITLE6=I've Got The Real Thing
TTITLE7=I Resign
TTITLE8=Soul Drippin
TTITLE9=Someone Like You
TTITLE10=I Feel An Urge
TTITLE11=Home Work
TTITLE12=Trying To Get To U
TTITLE13=Wiggles
TTITLE14=Same Kinda Thing
TTITLE15=Going To The Shack
TTITLE16=New Day
TTITLE17=Let Them Hang Higher
TTITLE18=Ode To A Soul Man
TTITLE19=Skinny Legs
TTITLE20=Take Me Back
TTITLE21=Don't Give It Away
TTITLE22=Abracadabra
TTITLE23=Come On, Sock It To Me (instrumental)
EXTD=
EXTT0=
EXTT1=
EXTT2=
EXTT3=
EXTT4=
EXTT5=
EXTT6=
EXTT7=
EXTT8=
EXTT9=
EXTT10=
EXTT11=
EXTT12=
EXTT13=
EXTT14=
EXTT15=
EXTT16=
EXTT17=
EXTT18=
EXTT19=
EXTT20=
EXTT21=
EXTT22=
EXTT23=
PLAYORDER=
